<?xml version="1.0" standalone="no"?>
<!DOCTYPE svg PUBLIC "-//W3C//DTD SVG 20010904//EN"
 "http://www.w3.org/TR/2001/REC-SVG-20010904/DTD/svg10.dtd">
<svg version="1.0" xmlns="http://www.w3.org/2000/svg"
 width="1000.000000pt" height="1000.000000pt" viewBox="0 0 1000.000000 1000.000000"
 preserveAspectRatio="xMidYMid meet">

<g transform="translate(0.000000,1000.000000) scale(0.100000,-0.100000)"
fill="#000000" stroke="none">
<path d="M4740 9181 c-984 -109 -1865 -642 -2407 -1456 -230 -346 -403 -717
-483 -1039 -30 -117 -25 -111 -65 -81 -42 33 -95 37 -125 10 -11 -10 -28 -44
-36 -74 -25 -89 -33 -90 -84 -16 -86 128 -200 209 -239 171 -11 -11 -11 -21
-2 -47 6 -18 9 -34 7 -36 -2 -2 -36 12 -74 32 -128 65 -256 79 -399 45 -176
-42 -365 -166 -478 -314 -27 -36 -52 -65 -55 -65 -3 -1 -14 27 -25 62 -27 82
-50 88 -98 22 -85 -118 -115 -268 -97 -490 10 -133 6 -384 -17 -927 -16 -385
78 -643 314 -869 271 -258 547 -295 754 -101 35 33 82 90 103 126 35 59 42 66
70 66 123 0 264 60 348 147 53 56 118 165 118 198 0 36 17 10 34 -52 61 -229
221 -423 350 -423 46 0 72 24 100 93 13 32 27 59 32 60 5 0 39 -42 75 -95 182
-268 371 -489 553 -647 53 -46 96 -87 96 -90 0 -3 -84 -6 -187 -6 -172 0 -197
-3 -298 -28 -216 -55 -348 -113 -526 -233 -69 -46 -152 -94 -185 -105 -149
-53 -199 -90 -250 -191 -38 -75 -54 -166 -54 -319 0 -148 9 -210 47 -339 73
-249 181 -448 359 -660 46 -55 84 -102 84 -104 0 -2 -51 -7 -112 -10 -62 -4
-178 -13 -258 -21 -80 -7 -188 -17 -240 -20 -130 -9 -343 -41 -401 -60 -63
-21 -86 -47 -71 -80 6 -13 22 -31 36 -40 31 -21 165 -51 269 -60 42 -4 77 -11
77 -15 0 -4 -33 -10 -74 -14 -86 -8 -284 -41 -341 -57 -49 -14 -105 -68 -105
-102 0 -14 4 -29 10 -32 12 -7 232 -40 366 -54 369 -40 1133 -66 1659 -56
1063 18 1843 46 2138 76 193 19 214 20 270 6 91 -23 198 -34 522 -54 253 -16
456 -18 1605 -18 1160 0 1347 2 1585 18 366 25 513 57 580 127 22 23 26 34 20
59 -4 20 -17 37 -34 45 -30 16 -234 60 -321 70 -133 16 -132 16 -125 43 8 32
-15 67 -56 88 -34 18 -189 40 -351 51 -60 4 -108 7 -108 8 0 1 16 39 35 85 62
147 79 229 80 381 0 116 -3 145 -23 202 -31 89 -86 171 -158 237 -82 75 -149
104 -244 105 -41 0 -87 -3 -103 -7 -24 -6 -33 -2 -72 38 -25 24 -45 49 -45 55
0 6 18 17 40 26 39 16 45 26 40 68 -5 53 -99 145 -186 183 -22 9 -79 19 -127
22 l-89 6 -13 40 c-19 54 -100 128 -170 154 -30 11 -98 27 -152 35 -145 22
-256 76 -155 76 99 0 271 72 342 143 66 66 52 106 -57 161 -29 15 -53 28 -53
30 0 2 23 19 51 36 57 37 99 87 99 118 0 29 -42 59 -95 66 -25 4 -45 10 -45
13 0 3 64 72 143 152 78 81 169 185 202 231 33 45 72 97 88 114 l27 31 38 -42
c37 -40 39 -45 49 -145 33 -315 245 -612 534 -747 299 -140 487 -139 774 6
166 83 322 222 395 351 37 65 47 73 56 45 4 -10 17 -42 31 -71 22 -46 28 -53
51 -50 19 2 32 14 49 48 45 89 57 162 56 340 -1 91 -2 248 -2 350 -1 222 -18
606 -32 745 -24 232 -89 398 -207 526 -77 84 -171 149 -214 149 -24 0 -32 -6
-41 -30 -6 -16 -14 -30 -17 -30 -3 0 -22 36 -42 79 -64 135 -201 265 -424 404
l-119 74 -22 86 c-41 162 -139 333 -249 437 -85 81 -174 111 -216 73 -11 -10
-22 -13 -27 -7 -5 5 -26 65 -46 134 -236 790 -760 1461 -1486 1901 -334 203
-686 337 -1099 418 -239 48 -677 62 -950 32z m964 -285 c178 -35 397 -98 546
-158 134 -54 333 -148 416 -197 l51 -30 6 -75 c5 -52 18 -104 46 -173 70 -176
86 -288 51 -353 -11 -21 -15 -21 -293 -14 -180 4 -349 2 -467 -5 -178 -11
-521 -46 -567 -58 -18 -4 -36 8 -85 54 -149 140 -274 237 -400 310 -199 115
-207 229 -32 459 97 128 147 164 329 241 76 32 84 33 175 29 52 -3 153 -17
224 -30z m-1027 -8 c13 -14 14 -23 3 -66 -19 -81 -151 -298 -256 -420 -53 -62
-113 -87 -313 -132 -274 -60 -537 -142 -735 -227 -136 -58 -373 -123 -452
-123 -60 0 -71 18 -49 78 33 86 238 268 495 439 312 207 700 370 1069 448 127
27 212 28 238 3z m2486 -716 c42 -36 75 -67 73 -69 -2 -2 -36 10 -77 26 -78
31 -119 72 -135 136 l-7 30 34 -29 c19 -16 69 -58 112 -94z m-2405 -216 c222
-109 418 -260 471 -364 26 -51 49 -140 53 -207 l3 -50 -78 -6 c-145 -12 -283
-73 -334 -149 -50 -73 -61 -188 -44 -455 21 -339 49 -451 130 -515 22 -18 41
-40 41 -48 0 -25 -114 -126 -193 -170 -88 -50 -327 -162 -537 -252 -318 -135
-463 -168 -604 -137 -182 39 -397 194 -558 402 -130 167 -154 240 -145 450 13
299 99 643 217 865 22 41 63 122 92 180 75 150 137 210 300 289 279 135 711
235 976 227 90 -3 96 -5 210 -60z m2562 -105 c37 -27 103 -222 79 -237 -17
-10 -174 26 -187 43 -13 18 -32 78 -32 103 0 29 21 90 37 105 19 19 65 13 103
-14z m-4677 -226 c46 -19 136 -19 252 0 76 13 92 13 103 1 22 -22 -2 -112 -50
-192 -97 -160 -193 -433 -242 -689 -15 -77 -36 -184 -46 -237 -22 -109 -58
-190 -131 -289 -82 -111 -268 -279 -309 -279 -30 0 -113 102 -168 207 l-52
101 10 78 c27 200 85 431 155 614 83 215 235 499 357 663 46 62 52 66 67 53 9
-8 33 -22 54 -31z m5040 -32 c93 -144 174 -293 159 -293 -15 0 -137 43 -149
53 -7 5 -13 21 -13 36 0 14 -11 80 -25 146 -14 66 -25 121 -25 122 0 13 16 -7
53 -64z m-685 -145 l28 -93 94 -7 c157 -12 323 -37 330 -49 4 -6 15 -59 24
-117 9 -59 19 -116 21 -128 4 -19 16 -22 110 -33 58 -7 112 -14 120 -18 24 -8
85 -253 72 -286 -3 -9 -26 -16 -62 -19 -30 -3 -60 -9 -65 -14 -6 -6 6 -133 29
-329 21 -176 36 -325 34 -331 -2 -6 -45 -17 -96 -24 -51 -7 -95 -16 -99 -19
-4 -4 0 -100 9 -214 9 -114 14 -210 10 -213 -3 -3 -81 -18 -173 -33 l-166 -26
7 -127 c4 -71 5 -128 3 -128 -2 0 -82 -11 -178 -24 -205 -29 -408 -51 -414
-45 -3 2 -10 60 -16 129 -7 69 -14 127 -16 129 -2 2 -115 -4 -251 -13 -136 -8
-298 -18 -359 -22 l-112 -6 -6 48 c-3 27 -13 117 -21 199 -9 83 -18 161 -21
174 l-5 23 -184 -7 c-152 -6 -186 -5 -190 6 -2 8 -18 156 -35 329 -17 173 -35
332 -41 352 l-10 38 -98 0 -99 0 -6 33 c-11 62 -27 350 -19 357 10 9 138 26
343 46 91 9 168 19 172 23 4 3 -4 101 -19 218 -14 116 -23 218 -20 226 6 17
105 29 452 57 304 25 327 26 637 28 l257 2 29 -92z m1029 -575 c43 -94 68
-175 102 -333 80 -364 97 -680 56 -1055 -49 -449 -200 -886 -417 -1212 -62
-93 -102 -140 -85 -102 70 163 106 280 127 414 26 161 4 572 -36 691 -14 40
-14 48 -1 62 29 33 39 100 31 211 -5 58 -9 110 -9 115 0 6 26 18 58 27 64 19
91 38 115 84 21 39 20 206 -3 365 -30 223 -31 232 -2 276 74 118 82 294 21
502 -14 48 15 18 43 -45z m-7223 -499 c-28 -42 -188 -177 -302 -256 -57 -38
-105 -68 -108 -66 -2 3 18 36 45 74 85 121 213 225 325 264 28 9 52 16 54 15
2 -2 -5 -16 -14 -31z m463 -178 c63 -48 145 -146 169 -202 11 -27 9 -40 -16
-120 -16 -49 -33 -108 -37 -131 l-8 -41 -76 56 c-42 31 -96 69 -121 83 l-45
27 4 98 c3 64 -1 134 -11 196 -23 138 -24 133 32 104 26 -13 75 -45 109 -70z
m7248 -222 c33 -7 85 -23 115 -36 208 -87 338 -204 430 -388 47 -94 123 -311
113 -320 -4 -4 -42 -15 -83 -25 -99 -23 -221 -61 -294 -92 -52 -21 -61 -23
-74 -10 -8 8 -42 70 -76 138 l-61 123 -55 13 c-30 8 -87 23 -127 35 l-72 21 2
283 2 283 60 -5 c33 -4 87 -12 120 -20z m-5775 -133 c63 -14 89 -25 105 -43
11 -14 47 -57 79 -97 92 -112 221 -228 347 -315 122 -83 161 -127 196 -216 15
-40 18 -90 19 -430 1 -243 6 -418 14 -475 6 -49 12 -143 12 -208 -1 -103 -4
-124 -24 -165 l-23 -47 -70 -3 c-104 -5 -390 26 -456 49 -192 66 -318 195
-488 495 -81 145 -231 500 -231 548 0 9 27 22 73 35 210 61 303 156 482 494
31 59 55 107 52 107 -2 0 -51 -26 -108 -57 -237 -129 -383 -188 -505 -203 -79
-10 -349 11 -384 30 -11 6 -20 28 -24 62 -4 29 -30 120 -57 202 -56 169 -58
158 28 218 l43 29 72 -15 c140 -29 215 -30 334 -7 186 36 383 41 514 12z
m-1546 -68 c33 -20 89 -64 123 -96 54 -52 63 -65 69 -106 11 -82 35 -164 71
-243 33 -72 35 -80 22 -109 -25 -61 -106 -174 -165 -230 -52 -49 -145 -119
-157 -119 -9 0 -144 166 -186 227 -56 84 -141 260 -141 292 0 18 22 53 66 106
82 98 142 182 184 258 17 31 37 57 42 57 6 0 38 -17 72 -37z m3957 -131 c6
-87 25 -117 94 -152 43 -21 66 -25 177 -28 71 -3 128 -7 128 -11 7 -140 21
-255 35 -282 56 -110 172 -159 329 -139 93 12 112 4 142 -57 29 -59 27 -276
-5 -398 -63 -245 -210 -619 -296 -753 -106 -164 -218 -311 -259 -337 -27 -18
-250 -45 -371 -45 -102 0 -307 22 -422 46 -251 50 -645 227 -728 326 -113 135
-174 478 -161 908 8 281 24 336 130 456 68 77 113 99 681 335 198 82 389 163
425 179 36 16 72 28 80 27 11 -2 16 -21 21 -75z m-4759 -357 c4 -5 7 -44 6
-85 l-2 -75 -3 75 c-4 68 -7 78 -36 110 l-32 35 30 -25 c16 -14 33 -29 37 -35z
m7332 -8 c-7 -19 -59 -47 -87 -47 -28 0 -47 18 -25 24 7 1 33 10 58 18 58 20
60 20 54 5z m-7417 -29 c-3 -8 -6 -5 -6 6 -1 11 2 17 5 13 3 -3 4 -12 1 -19z
m1286 -63 c25 -14 50 -31 56 -38 14 -18 -23 -176 -60 -248 -49 -98 -175 -194
-332 -254 -101 -37 -97 -40 -97 69 l0 94 43 25 c109 65 243 206 302 320 17 31
33 57 36 57 4 0 27 -11 52 -25z m-1306 -107 c-3 -8 -6 -5 -6 6 -1 11 2 17 5
13 3 -3 4 -12 1 -19z m100 -50 c-2 -13 -4 -3 -4 22 0 25 2 35 4 23 2 -13 2
-33 0 -45z m9128 -23 c105 -74 135 -122 175 -277 24 -92 39 -352 22 -377 -8
-11 -20 -5 -63 27 -59 43 -113 73 -170 91 l-36 12 -8 121 c-4 73 -17 159 -32
217 -13 53 -27 106 -29 117 -6 21 51 112 70 113 5 1 37 -19 71 -44z m-8945 -7
c0 -16 -3 -19 -11 -11 -6 6 -8 16 -5 22 11 17 16 13 16 -11z m6938 -25 c36
-80 45 -133 43 -253 -4 -242 -105 -559 -266 -835 -68 -116 -90 -139 -245 -254
-262 -194 -340 -237 -474 -260 -76 -14 -346 -14 -456 -1 -76 9 -88 14 -114 42
-44 48 -34 90 69 302 142 293 216 490 294 784 44 166 65 214 110 259 43 43 65
49 281 78 551 73 619 86 672 120 20 13 39 33 43 45 10 31 20 24 43 -27z
m-6941 -110 c-2 -21 -4 -4 -4 37 0 41 2 58 4 38 2 -21 2 -55 0 -75z m8063 -4
c3 -3 22 -9 43 -13 31 -6 37 -10 31 -24 -36 -83 -47 -136 -53 -256 l-6 -129
-40 -12 c-22 -6 -65 -25 -95 -41 -30 -16 -58 -30 -62 -32 -10 -5 -27 64 -33
143 -12 128 38 294 116 388 l32 38 31 -28 c17 -15 33 -31 36 -34z m720 -6 c27
-89 40 -178 40 -289 0 -106 4 -100 -133 -189 -94 -61 -237 -131 -286 -141 -42
-9 -102 29 -198 121 l-76 73 6 114 c6 111 27 218 53 269 12 25 17 26 127 32
127 8 320 38 382 60 22 8 45 15 52 16 7 0 22 -29 33 -66z m-8220 -455 c-1 -94
-50 -167 -141 -207 -47 -21 -159 -39 -159 -26 0 4 8 19 18 33 11 15 34 55 51
89 39 74 58 92 136 132 87 44 95 42 95 -21z m7165 -313 c14 -38 37 -110 50
-160 13 -49 33 -119 44 -155 67 -219 89 -295 87 -298 -15 -14 -171 168 -210
247 -54 106 -69 239 -41 361 27 114 29 114 70 5z m1180 -255 c-10 -11 -21 -18
-23 -15 -3 3 3 12 14 20 27 20 30 18 9 -5z m46 -198 c-38 -55 -131 -131 -199
-164 -63 -31 -73 -33 -172 -33 -111 0 -180 10 -180 25 0 6 6 10 14 10 32 0
261 77 400 135 83 35 153 62 155 60 2 -2 -6 -17 -18 -33z m-5946 -107 c247
-22 265 -26 406 -93 161 -78 284 -125 433 -168 134 -39 332 -81 425 -91 34 -3
64 -9 66 -13 6 -10 -75 -44 -152 -64 -34 -9 -140 -27 -235 -40 -95 -14 -180
-27 -189 -31 -9 -3 -31 -38 -49 -77 -50 -107 -114 -220 -202 -355 -141 -217
-287 -325 -479 -357 l-36 -6 -39 142 c-30 112 -39 161 -39 223 0 119 14 148
86 187 33 17 77 51 98 74 44 50 195 284 188 291 -3 3 -47 24 -99 47 -166 75
-377 203 -470 286 -88 77 -82 78 287 45z m3136 -454 c35 -44 86 -117 114 -163
56 -93 137 -285 139 -331 1 -27 -3 -30 -54 -43 -93 -24 -177 -70 -240 -130
l-60 -57 -42 29 c-111 75 -221 212 -288 358 -39 83 -87 223 -79 229 2 2 69 29
149 61 80 31 174 72 210 91 36 19 70 34 77 35 6 0 40 -36 74 -79z m-783 43
c67 -10 122 -21 122 -26 0 -26 -251 -101 -440 -132 -171 -27 -515 -46 -494
-27 5 5 51 25 103 45 51 20 145 59 208 87 183 81 178 80 283 74 52 -2 150 -12
218 -21z m-3436 -55 c-5 -62 -18 -77 -99 -109 -73 -29 -343 -178 -376 -208
-28 -25 -32 -5 -7 41 65 118 165 209 295 268 69 31 163 60 180 55 6 -2 9 -23
7 -47z m549 -83 c26 -8 62 -22 80 -32 55 -27 170 -107 167 -114 -28 -70 -106
-220 -115 -220 -6 0 -58 16 -115 35 -57 19 -123 37 -148 41 -63 10 -77 19 -84
57 -8 43 -53 114 -112 177 -33 35 -42 51 -33 55 71 27 277 28 360 1z m-1261
-216 c0 -5 -5 -10 -11 -10 -5 0 -7 5 -4 10 3 6 8 10 11 10 2 0 4 -4 4 -10z
m3922 -113 c3 -84 7 -101 40 -168 62 -126 173 -229 246 -229 25 0 24 -8 22
140 -2 125 4 131 39 42 12 -30 40 -81 62 -114 l41 -60 -32 -39 c-119 -148
-130 -321 -34 -512 20 -39 23 -56 18 -95 -5 -39 3 -122 19 -205 1 -9 -35 -14
-128 -18 -147 -6 -184 -19 -216 -74 -18 -30 -25 -34 -82 -39 -34 -4 -91 -11
-127 -17 -53 -8 -72 -7 -103 6 -98 41 -393 77 -787 95 -124 6 -301 15 -395 20
-93 5 -245 10 -336 10 -91 0 -194 3 -228 6 l-62 7 44 46 c63 64 123 154 147
219 16 43 21 75 19 141 l-2 86 53 29 c30 15 74 43 98 62 49 37 67 36 59 -4 -7
-39 2 -52 37 -52 89 0 212 141 252 290 9 36 19 67 20 69 2 2 20 -9 40 -24 82
-63 170 -39 276 74 78 83 128 167 163 275 l27 83 241 7 c133 4 294 13 357 20
63 7 136 14 162 15 l46 1 4 -93z m-2702 -35 c52 -14 112 -34 132 -44 39 -19
42 -25 53 -113 15 -111 66 -280 110 -362 25 -46 45 -89 45 -96 0 -29 -81 -177
-120 -219 l-41 -46 -102 1 c-56 0 -116 -3 -133 -7 -30 -7 -31 -6 -47 51 -9 32
-28 76 -43 98 -15 22 -57 101 -93 175 -61 125 -66 140 -66 200 1 57 8 82 63
210 35 80 67 155 72 167 11 26 22 26 170 -15z m4435 -101 c194 -62 278 -111
400 -235 124 -127 165 -227 126 -304 -25 -50 -24 -49 -181 -21 -63 11 -149 25
-190 30 -41 6 -75 11 -76 12 -1 1 -29 43 -63 93 -33 51 -93 126 -132 168 -51
55 -68 80 -62 89 16 19 43 108 43 138 0 39 10 59 29 59 9 0 57 -13 106 -29z
m-173 -263 c58 -60 126 -144 173 -212 l40 -59 -50 -41 c-64 -52 -199 -186
-253 -251 -40 -48 -44 -50 -89 -49 -67 1 -174 56 -307 156 l-108 82 5 41 c7
51 40 129 72 171 18 24 38 35 77 44 69 16 236 82 318 125 36 19 68 34 73 34 4
1 26 -18 49 -41z m-616 -84 c35 -20 64 -37 64 -39 0 -1 -16 -29 -35 -61 -20
-33 -43 -83 -51 -113 l-16 -53 -46 6 c-26 3 -52 12 -59 19 -15 15 -28 150 -19
198 3 19 15 49 26 66 23 38 29 37 136 -23z m-4652 -41 c11 -14 29 -40 40 -57
14 -23 9 -20 -22 14 l-41 45 0 -35 c0 -51 25 -256 33 -269 4 -6 2 -11 -4 -11
-17 0 -37 58 -50 149 -10 67 -10 94 0 137 7 30 15 54 18 54 2 0 14 -12 26 -27z
m6282 -98 c53 -27 111 -71 104 -79 -3 -2 -42 -12 -88 -21 -81 -17 -272 -19
-287 -3 -4 4 3 26 16 50 20 35 33 46 74 60 71 24 123 22 181 -7z m-4716 -74
c0 -54 -60 -152 -146 -238 -46 -46 -89 -83 -97 -83 -9 0 -29 17 -45 38 l-30
38 35 54 c19 30 52 92 74 137 l38 81 86 1 85 0 0 -28z m-1463 -63 c-3 -8 -6
-5 -6 6 -1 11 2 17 5 13 3 -3 4 -12 1 -19z m10 -40 c-3 -8 -6 -5 -6 6 -1 11 2
17 5 13 3 -3 4 -12 1 -19z m-68 -88 l23 -35 -26 28 c-14 15 -26 33 -26 39 0
13 0 14 29 -32z m98 -2 c-3 -8 -6 -5 -6 6 -1 11 2 17 5 13 3 -3 4 -12 1 -19z
m-56 -55 c13 -16 12 -17 -3 -4 -17 13 -22 21 -14 21 2 0 10 -8 17 -17z m40
-50 c13 -16 12 -17 -3 -4 -10 7 -18 15 -18 17 0 8 8 3 21 -13z m73 -69 c3 -8
2 -12 -4 -9 -6 3 -10 10 -10 16 0 14 7 11 14 -7z m4330 -189 c32 -36 52 -62
44 -59 -7 3 -35 32 -63 63 -27 31 -69 72 -92 91 -23 19 -42 39 -42 43 -1 16
95 -71 153 -138z m-82 -32 c6 -7 8 -13 4 -13 -10 0 -46 63 -46 80 1 8 7 0 16
-19 8 -19 19 -41 26 -48z m1848 27 c-17 -22 -34 -40 -37 -40 -4 0 2 9 11 19
11 12 15 25 10 33 -4 7 -4 10 1 6 5 -5 15 1 23 13 8 11 16 18 19 15 3 -3 -9
-23 -27 -46z m-30 5 c0 -2 -10 -9 -22 -15 -22 -11 -22 -10 -4 4 21 17 26 19
26 11z m-62 -108 c-51 -47 -118 -95 -118 -84 0 2 17 16 38 30 20 14 57 43 82
66 24 23 47 41 50 41 3 -1 -20 -24 -52 -53z m-108 23 c-8 -5 -19 -10 -25 -10
-5 0 -3 5 5 10 8 5 20 10 25 10 6 0 3 -5 -5 -10z m-215 -90 c-11 -5 -27 -9
-35 -9 -9 0 -8 4 5 9 11 5 27 9 35 9 9 0 8 -4 -5 -9z m-60 -19 c-6 -5 -23 -12
-40 -15 -28 -6 -28 -5 5 8 43 18 46 18 35 7z m245 -11 c-8 -5 -22 -9 -30 -9
-10 0 -8 3 5 9 27 12 43 12 25 0z m-1339 -17 c13 -16 12 -17 -3 -4 -10 7 -18
15 -18 17 0 8 8 3 21 -13z m1006 1 c-3 -3 -12 -4 -19 -1 -8 3 -5 6 6 6 11 1
17 -2 13 -5z m279 -3 c-6 -10 -86 -31 -113 -30 -10 0 11 8 47 18 36 10 66 19
68 20 2 0 1 -3 -2 -8z m-351 -11 c3 -5 1 -10 -4 -10 -6 0 -11 5 -11 10 0 6 2
10 4 10 3 0 8 -4 11 -10z m198 -27 c-13 -2 -33 -2 -45 0 -13 2 -3 4 22 4 25 0
35 -2 23 -4z m-1058 -33 c10 -11 16 -20 13 -20 -3 0 -13 9 -23 20 -10 11 -16
20 -13 20 3 0 13 -9 23 -20z"/>
<path d="M7140 7085 c-23 -25 -25 -33 -24 -123 1 -54 13 -213 27 -355 28 -286
36 -312 97 -334 32 -12 147 -10 207 3 43 8 56 57 49 171 -9 150 -55 540 -69
581 -20 59 -52 74 -164 80 -96 4 -98 4 -123 -23z"/>
<path d="M6090 7073 c-89 -10 -120 -45 -120 -139 0 -31 9 -151 20 -268 36
-380 35 -372 65 -412 41 -54 83 -67 193 -62 107 6 135 20 166 83 19 39 19 40
-8 314 -31 315 -40 372 -68 422 -36 65 -92 79 -248 62z"/>
<path d="M7195 5949 c-38 -4 -137 -13 -220 -19 -392 -28 -580 -43 -583 -45 -9
-8 23 -47 102 -125 l86 -84 182 18 c210 20 373 43 405 56 19 8 143 182 143
202 0 9 -16 9 -115 -3z"/>
<path d="M8594 4803 c-35 -45 -85 -123 -80 -123 4 0 91 118 109 147 16 27 -2
12 -29 -24z"/>
<path d="M8441 4534 c0 -11 3 -14 6 -6 3 7 2 16 -1 19 -3 4 -6 -2 -5 -13z"/>
<path d="M8301 3819 c-2 -93 15 -154 58 -212 37 -49 101 -117 101 -106 0 13
-59 179 -73 205 -13 24 -16 25 -17 9 0 -11 -6 -27 -13 -37 -12 -14 -14 -13
-26 14 -8 16 -17 64 -21 106 -7 74 -7 75 -9 21z"/>
</g>
</svg>
